<?xml version="1.0" standalone="no"?>
<!DOCTYPE svg PUBLIC "-//W3C//DTD SVG 20010904//EN"
 "http://www.w3.org/TR/2001/REC-SVG-20010904/DTD/svg10.dtd">
<svg version="1.0" xmlns="http://www.w3.org/2000/svg"
 width="1000.000000pt" height="1000.000000pt" viewBox="0 0 1000.000000 1000.000000"
 preserveAspectRatio="xMidYMid meet">
<metadata>
Created by potrace 1.16, written by Peter Selinger 2001-2019
</metadata>
<g transform="translate(0.000000,1000.000000) scale(0.100000,-0.100000)"
fill="#000000" stroke="none">
<path d="M2780 8706 c-19 -13 -46 -27 -60 -31 -14 -4 -62 -28 -107 -53 -81
-45 -197 -147 -209 -184 -6 -21 -34 -25 -34 -4 0 18 -44 46 -73 46 -23 0 -55
-27 -74 -63 -18 -34 1 -108 36 -139 l31 -27 -25 -47 c-21 -40 -25 -60 -25
-133 0 -47 7 -113 15 -146 26 -104 54 -369 44 -411 -13 -57 -11 -123 5 -201 8
-38 18 -104 22 -148 7 -85 14 -104 87 -230 26 -44 47 -84 47 -90 0 -5 -278
-172 -617 -370 -532 -311 -619 -365 -635 -395 -17 -33 -18 -90 -18 -1382 0
-892 -3 -1348 -10 -1348 -5 0 -10 -4 -10 -10 0 -16 34 1 369 194 178 102 325
185 327 184 9 -11 36 -193 41 -284 5 -94 3 -122 -15 -180 -27 -92 -31 -122
-33 -234 -1 -53 -6 -101 -13 -109 -9 -11 -8 -13 4 -9 19 7 151 -63 143 -76 -3
-5 -1 -6 6 -2 7 4 26 -3 44 -16 18 -14 47 -31 65 -39 17 -8 32 -16 32 -19 -1
-3 -62 -39 -138 -81 l-137 -75 -35 20 c-69 40 -99 64 -92 71 4 5 2 5 -5 2 -13
-8 -94 33 -88 44 3 3 -3 6 -12 5 -10 0 -19 8 -21 18 -3 15 0 18 17 13 12 -3
19 -2 16 3 -3 4 2 13 10 20 8 7 15 9 15 5 0 -5 9 0 20 10 10 9 26 15 35 12 8
-4 14 -1 12 5 -3 13 89 69 99 60 4 -4 4 -2 0 5 -5 9 -18 6 -49 -10 -23 -12
-47 -26 -53 -32 -6 -5 -43 -26 -82 -45 -39 -19 -74 -44 -78 -54 -3 -10 -3 -74
1 -142 l7 -123 111 -64 c183 -106 168 -101 221 -71 l46 26 57 -33 c32 -18 82
-48 112 -66 l53 -34 -3 -124 c-3 -94 -8 -128 -19 -139 -8 -9 -73 -49 -145 -90
l-130 -74 -3 134 -3 135 -27 11 c-15 7 -34 18 -44 26 -9 7 -23 15 -32 16 -8 1
-23 9 -33 17 -20 18 -127 79 -137 79 -4 0 -6 -56 -5 -125 l1 -126 29 -15 c35
-18 31 -27 -22 -54 l-39 -20 0 -78 0 -78 -55 -29 c-30 -15 -55 -29 -55 -31 0
-5 389 -224 398 -224 15 0 832 468 832 476 0 2 -22 15 -50 29 l-50 25 0 75 0
75 -40 20 c-21 11 -43 20 -48 20 -5 0 -43 -20 -84 -45 -42 -25 -80 -45 -86
-45 -6 0 -12 -4 -14 -8 -5 -12 -77 -52 -94 -52 -11 0 -14 23 -14 128 l0 127
-95 53 c-52 30 -97 57 -100 62 -2 4 29 27 70 51 l75 44 0 47 c0 39 4 50 24 64
23 15 27 14 63 -10 28 -19 50 -26 88 -26 64 0 121 16 146 41 22 22 26 81 7 97
-7 5 -46 12 -86 14 -81 4 -92 12 -92 68 0 56 10 78 41 90 22 10 27 16 19 25
-8 9 -7 15 2 19 7 3 4 4 -7 1 -40 -9 -46 5 -35 91 6 43 13 113 16 154 3 41 10
111 15 155 13 111 11 239 -4 312 -12 54 -11 63 1 68 24 9 10 127 -19 170 -33
48 -50 46 -47 -7 2 -33 -1 -44 -17 -53 -11 -5 -33 -19 -48 -29 -31 -21 -113
-28 -125 -11 -4 6 -32 19 -62 29 -75 25 -126 60 -146 98 -22 44 -21 44 -44 23
-11 -10 -20 -30 -20 -44 0 -23 -15 -35 -123 -98 -67 -39 -173 -101 -235 -137
l-113 -66 -1 107 c-3 317 -2 1326 2 1793 l5 534 130 76 c186 110 384 225 425
248 36 20 438 255 595 347 50 29 187 109 305 178 118 68 393 228 610 354 217
127 438 255 490 285 52 31 232 135 400 233 168 98 347 202 399 232 88 50 237
137 644 375 92 54 170 98 172 98 3 0 5 -546 5 -1212 l0 -1213 -163 -95 c-89
-52 -268 -156 -397 -231 -129 -75 -365 -213 -525 -306 -159 -94 -291 -170
-292 -169 -1 1 -3 38 -5 83 -1 46 -7 83 -11 83 -5 0 -5 5 -2 10 4 6 12 7 18 4
7 -4 8 -3 4 1 -16 18 -42 13 -78 -16 -90 -71 -189 -92 -289 -60 -35 11 -68 17
-72 13 -3 -4 -14 -45 -23 -92 -10 -47 -25 -94 -34 -104 -9 -11 -11 -17 -6 -14
7 4 11 -29 13 -91 l3 -98 -502 -293 c-277 -161 -510 -301 -518 -310 -48 -55
-298 -201 -380 -223 -22 -5 -23 -9 -16 -59 4 -29 10 -58 14 -64 4 -7 135 63
356 191 741 427 1036 596 1049 601 21 8 46 -77 56 -196 12 -143 17 -337 8
-346 -5 -4 -28 -6 -53 -6 -54 2 -85 -14 -85 -45 0 -47 64 -86 125 -76 31 5 37
3 41 -15 7 -25 68 -42 106 -30 31 11 46 46 55 131 7 69 22 74 58 17 28 -44 57
-56 97 -41 53 20 61 56 59 261 -1 102 -6 219 -12 260 -5 41 -9 136 -7 210 l3
135 45 28 c25 16 389 226 810 468 l765 440 8 -88 c4 -48 7 -197 5 -331 l-3
-242 60 -20 c148 -47 234 -50 402 -10 l90 22 49 -22 c90 -40 134 -63 134 -71
0 -3 -7 -12 -16 -20 -27 -22 -64 -107 -64 -146 0 -55 28 -101 95 -155 75 -61
172 -111 265 -138 96 -28 267 -37 394 -21 l96 12 42 -30 c24 -16 55 -33 70
-36 26 -7 27 -5 30 36 3 42 4 43 63 66 32 13 64 23 70 23 19 0 18 -68 -1 -78
-13 -7 -9 -11 20 -16 42 -8 155 24 176 50 17 20 2 18 -74 -11 l-67 -25 3 36
c3 34 6 37 72 62 38 15 71 32 73 39 10 29 -391 256 -655 372 -48 21 -150 62
-227 91 -188 71 -228 92 -310 164 -73 64 -274 216 -335 253 -19 12 -84 49
-145 84 -60 34 -135 76 -165 93 -30 17 -76 43 -102 56 l-48 25 0 371 0 371 23
-4 c31 -6 162 70 145 84 -43 34 -56 34 -113 2 l-55 -31 0 942 c0 824 -2 945
-15 970 -10 19 -23 30 -36 30 -36 0 -25 6 -1174 -670 -635 -374 -1725 -1010
-1730 -1010 -4 0 -28 15 -56 32 -35 24 -47 37 -43 50 3 9 -3 29 -12 43 -13 20
-19 64 -26 192 -12 205 -1 309 46 463 39 125 47 228 25 316 -16 61 -4 82 70
132 l61 40 16 -56 c17 -58 60 -151 87 -187 14 -18 17 -16 45 48 17 37 41 81
53 99 l22 31 -25 46 c-21 37 -47 146 -48 198 -1 25 -20 -28 -20 -54 0 -18 -4
-33 -10 -33 -5 0 -10 -9 -10 -20 0 -34 -33 -42 -85 -20 -27 11 -57 17 -70 14
-32 -8 -65 26 -65 69 0 17 -3 42 -6 55 -10 36 24 27 42 -11 l16 -33 35 33 c29
28 42 33 83 33 30 0 54 6 64 15 8 9 19 15 23 15 25 -3 21 93 -5 123 -49 56
-173 74 -232 33z"/>
<path d="M7256 8379 c-67 -19 -116 -106 -97 -175 12 -43 37 -84 52 -84 5 0 7
11 3 25 -5 21 -3 25 15 25 14 0 25 -11 35 -32 12 -30 14 -31 21 -13 15 37 72
85 103 85 39 0 80 21 86 45 8 27 -21 64 -75 96 -50 30 -100 40 -143 28z"/>
<path d="M7740 8265 c0 -108 1 -115 23 -126 28 -16 93 -12 129 7 28 14 28 15
28 120 0 100 -1 104 -19 94 -29 -15 -104 -12 -127 5 -10 8 -22 15 -26 15 -5 0
-8 -52 -8 -115z"/>
<path d="M1710 7777 c-98 -58 -105 -65 -112 -102 -5 -22 -7 -45 -6 -52 4 -17
210 100 219 124 12 34 20 93 12 93 -4 0 -55 -29 -113 -63z"/>
<path d="M7104 7528 c-4 -7 -11 -33 -15 -58 -5 -34 -3 -49 8 -62 14 -15 13
-20 -6 -44 -24 -30 -28 -83 -9 -117 7 -12 12 -51 13 -87 0 -63 1 -65 27 -68
31 -4 34 -15 42 -200 5 -106 4 -117 -20 -175 -41 -97 -45 -114 -45 -244 0
-135 8 -230 22 -239 5 -3 9 -15 9 -27 1 -12 15 -47 33 -77 40 -66 82 -92 147
-88 l45 3 -1 38 c-1 41 -1 42 28 26 17 -9 28 -8 55 6 18 10 33 21 33 25 0 3
-18 17 -40 29 -38 21 -42 22 -65 7 -13 -9 -26 -16 -29 -16 -12 0 -48 73 -43
89 2 10 1 54 -3 96 -8 77 2 145 20 145 6 0 10 -20 10 -45 0 -29 9 -64 25 -94
27 -54 57 -68 121 -56 25 4 57 -2 111 -20 97 -34 143 -29 143 15 0 40 -34 73
-102 100 -32 12 -58 27 -58 33 0 6 -7 18 -16 28 -9 10 -16 28 -16 41 -1 29 32
258 40 278 3 8 6 21 8 29 1 8 6 26 9 40 4 14 8 42 10 61 2 19 10 94 19 165 9
72 17 168 17 215 1 47 5 87 10 90 11 8 -12 33 -53 57 l-37 22 -60 -40 c-59
-40 -60 -40 -150 -38 -78 1 -95 5 -123 25 -17 13 -37 24 -44 24 -12 0 -25 31
-38 93 -7 29 -20 35 -32 15z"/>
<path d="M1618 7338 l-107 -62 -12 -54 c-6 -29 -9 -55 -7 -56 1 -2 52 27 113
63 103 62 110 68 118 106 4 22 6 45 5 52 -2 8 -41 -9 -110 -49z"/>
<path d="M8746 7129 c-16 -17 -64 -55 -107 -86 -44 -30 -79 -56 -79 -57 0 -11
33 -66 40 -66 5 0 16 -3 25 -7 14 -5 16 -2 10 15 -3 12 -5 22 -2 22 2 0 28
-18 58 -41 43 -32 60 -39 83 -35 23 5 27 3 22 -10 -3 -9 -6 -20 -6 -25 0 -5
-8 -17 -18 -27 -38 -38 -81 -109 -87 -144 -5 -27 0 -64 20 -130 15 -51 31
-104 35 -118 5 -19 0 -34 -19 -60 -14 -19 -33 -41 -42 -47 -18 -13 -45 -78
-29 -68 5 3 25 -6 46 -20 45 -31 47 -31 90 -1 l36 24 61 -33 62 -34 9 -63 c5
-35 16 -68 24 -74 13 -9 12 -19 -3 -80 -16 -65 -17 -201 -1 -269 2 -11 20 -81
39 -155 19 -74 35 -144 36 -155 5 -150 1 -258 -12 -287 -8 -18 -18 -45 -21
-60 -4 -16 -13 -28 -21 -28 -8 0 -15 -4 -15 -8 0 -5 -24 -7 -54 -4 -58 5 -65
0 -73 -49 -3 -19 3 -41 16 -63 12 -18 19 -36 16 -39 -3 -4 -2 -5 1 -2 4 2 16
-1 27 -7 12 -6 49 -10 84 -9 46 1 68 -3 79 -14 25 -24 128 -21 155 6 11 11 26
18 32 16 17 -6 67 21 67 36 0 6 7 24 15 40 21 41 68 410 61 477 -22 182 -15
308 25 478 10 46 19 113 19 148 l0 65 -22 -15 c-33 -23 -105 -20 -164 8 -28
13 -54 28 -57 33 -6 10 13 87 25 98 3 4 27 13 52 20 l45 14 58 -55 58 -55 7
33 c21 97 -85 520 -158 627 -13 20 -24 46 -24 59 0 67 -65 102 -190 102 -48 0
-108 3 -134 6 -43 6 -47 9 -56 43 -15 58 -86 161 -110 160 -3 0 -18 -14 -34
-30z"/>
<path d="M1524 6896 l-109 -63 -12 -54 c-6 -29 -11 -54 -10 -56 1 -1 49 25
106 58 56 32 106 59 111 59 7 0 33 110 27 116 -2 2 -52 -25 -113 -60z"/>
<path d="M3196 6605 c-71 -41 -132 -75 -137 -75 -5 0 -9 -62 -9 -137 l0 -138
48 -27 c29 -16 53 -24 61 -19 7 5 36 -2 69 -15 72 -30 92 -31 69 -6 -22 24
-21 32 2 32 21 0 81 -63 81 -85 0 -8 4 -15 9 -15 5 0 61 30 125 66 l116 65 0
138 0 137 -32 16 c-18 8 -79 43 -136 77 -56 33 -110 61 -120 61 -9 0 -75 -34
-146 -75z"/>
<path d="M3717 6369 c-71 -11 -78 -20 -71 -93 4 -33 13 -71 20 -83 8 -12 14
-29 14 -37 0 -18 25 -27 38 -14 12 12 22 -2 42 -62 13 -39 19 -45 46 -48 79
-8 127 55 128 170 1 76 -16 109 -78 144 -20 11 -34 23 -31 25 7 8 -55 6 -108
-2z"/>
<path d="M3590 6159 c0 -25 -34 -49 -68 -49 -41 0 -42 -21 -6 -105 14 -33 31
-78 38 -100 7 -22 21 -41 30 -43 9 -2 41 8 71 22 l55 25 -6 43 c-4 23 -22 63
-40 89 -19 25 -43 66 -54 90 -11 24 -20 37 -20 28z"/>
<path d="M1039 5058 c0 -288 0 -621 0 -740 1 -170 -1 -218 -11 -218 -10 0 -10
-2 0 -9 8 -5 13 -23 12 -42 -1 -19 -2 -64 -1 -100 1 -60 4 -68 27 -84 14 -9
28 -15 30 -12 2 2 4 381 4 842 0 871 1 853 -42 876 -17 9 -18 -9 -19 -513z"/>
<path d="M2660 4974 c-30 -18 -94 -54 -142 -81 l-88 -48 0 -135 0 -135 88 -52
c120 -72 191 -105 211 -98 31 12 266 148 274 159 4 6 6 67 3 136 -4 121 -5
125 -29 135 -13 5 -31 16 -40 23 -9 8 -22 10 -28 6 -8 -5 -9 -3 -4 6 6 9 1 10
-16 5 -16 -4 -20 -3 -11 3 10 7 -1 17 -43 41 -31 17 -61 29 -67 25 -6 -4 -8
-3 -5 3 3 5 -6 16 -21 25 -26 14 -30 13 -82 -18z"/>
<path d="M1965 4777 c-16 -7 -37 -16 -45 -22 -26 -17 -60 -91 -60 -129 0 -54
38 -123 77 -141 47 -23 87 -9 91 31 6 52 36 71 51 32 8 -22 9 -21 19 12 24 78
44 124 59 135 23 17 12 46 -26 72 -38 26 -114 30 -166 10z"/>
<path d="M2390 4504 c-67 -21 -154 -33 -257 -35 -59 -2 -93 -6 -93 -13 0 -6
34 -33 75 -59 41 -27 75 -53 75 -58 0 -21 241 20 299 51 27 14 27 55 1 98 -22
35 -33 37 -100 16z"/>
<path d="M8055 4488 c-62 -22 -84 -64 -47 -90 18 -13 62 -133 62 -170 0 -10 5
-18 10 -18 6 0 10 9 10 21 0 15 5 20 23 17 19 -3 22 -9 22 -46 0 -50 13 -62
67 -62 70 0 138 83 138 168 0 128 -154 226 -285 180z"/>
<path d="M7853 4377 c-11 -14 -38 -106 -32 -110 69 -49 195 -130 227 -146 40
-21 43 -21 40 -4 -2 12 -14 19 -33 21 -44 5 -55 19 -55 69 0 24 -4 42 -8 39
-4 -3 -9 14 -9 37 -1 57 -1 57 -16 57 -6 0 -33 11 -59 25 -35 19 -48 22 -55
12z"/>
<path d="M905 4216 c-46 -25 -63 -41 -72 -67 -14 -39 -17 -82 -5 -77 4 2 40
21 79 43 l73 40 0 48 c0 26 -3 47 -7 47 -5 0 -35 -15 -68 -34z"/>
<path d="M8289 4159 c-1 -8 0 -22 1 -32 2 -24 -48 -43 -138 -51 -55 -5 -72 -3
-66 5 9 15 0 10 -81 -47 -69 -48 -91 -70 -120 -121 -16 -28 -34 -40 -90 -62
-38 -15 -69 -33 -68 -39 2 -6 -3 -9 -11 -6 -7 3 -36 -13 -64 -35 -28 -23 -53
-37 -56 -33 -3 5 -50 39 -105 76 -54 37 -110 79 -122 92 -25 27 -49 31 -49 9
0 -8 -13 -28 -30 -45 -16 -17 -30 -36 -30 -43 0 -19 86 -99 160 -149 36 -24
85 -58 109 -76 49 -36 97 -42 135 -17 12 8 56 26 96 40 40 14 82 33 93 42 18
17 19 17 12 -22 -18 -111 -39 -196 -60 -250 -39 -102 -49 -187 -37 -316 7 -63
17 -170 23 -239 6 -69 15 -166 20 -216 8 -87 4 -385 -7 -472 -8 -64 -35 -85
-101 -76 -41 5 -59 2 -78 -10 -34 -22 -35 -77 -1 -111 23 -23 39 -27 137 -40
34 -4 48 -11 52 -24 5 -22 94 -46 132 -37 41 10 65 72 65 163 0 43 7 129 15
190 10 72 14 182 13 305 -2 185 -1 196 24 268 15 41 32 109 39 150 l12 75 28
-110 c15 -60 38 -139 52 -175 13 -36 28 -87 31 -115 4 -27 18 -90 31 -140 13
-49 27 -116 31 -148 6 -49 5 -57 -8 -52 -22 9 -48 -22 -48 -56 0 -20 12 -43
38 -72 22 -23 44 -57 51 -76 6 -19 19 -43 28 -53 20 -22 85 -24 106 -3 32 31
60 167 46 219 -9 36 -15 89 -29 246 -6 74 -21 150 -40 213 -38 126 -55 282
-76 682 -3 60 -8 113 -10 117 -9 15 8 118 18 112 6 -4 8 1 4 14 -4 13 12 62
48 143 76 174 98 242 94 302 -4 68 -33 90 -126 95 -37 2 -73 9 -79 14 -9 7
-13 6 -14 -3z"/>
<path d="M3430 4108 l0 -53 68 -38 c89 -50 195 -111 314 -180 l98 -56 107 64
c60 35 167 97 238 138 l130 74 3 53 3 53 -53 -31 c-29 -16 -136 -78 -238 -136
l-184 -105 -41 23 c-249 145 -428 246 -436 246 -5 0 -9 -24 -9 -52z"/>
<path d="M8970 4003 c-52 -30 -117 -66 -145 -80 -157 -78 -257 -142 -251 -160
3 -8 6 -80 6 -159 l0 -145 33 -15 c17 -8 53 -28 79 -44 26 -16 71 -42 100 -59
29 -16 88 -50 131 -75 43 -25 82 -46 87 -46 6 0 10 -3 10 -7 0 -12 53 -34 59
-25 8 11 119 77 186 110 17 8 37 21 45 28 15 12 53 34 193 109 l47 26 -2 161
-3 161 -110 62 c-101 57 -266 152 -340 195 l-30 18 -95 -55z m210 -48 c17 -9
30 -19 30 -23 0 -6 -382 -229 -411 -240 -5 -2 -25 6 -45 19 l-36 22 134 77
c73 43 165 96 203 119 79 46 84 47 125 26z m179 -104 c15 -10 -31 -44 -154
-111 -33 -18 -103 -58 -155 -88 l-95 -54 -52 28 c-29 15 -50 30 -48 32 3 3 98
58 211 123 l207 118 36 -19 c20 -11 42 -23 50 -29z"/>
<path d="M4445 3853 c-5 -12 -9 -14 -12 -6 -3 9 -13 8 -38 -4 -32 -15 -37 -15
-69 2 -34 18 -34 18 -80 -9 -25 -15 -46 -29 -46 -31 0 -6 141 -85 154 -85 16
0 89 40 98 53 4 6 2 19 -3 30 -12 21 -4 51 11 42 6 -3 7 1 4 9 -8 20 -10 20
-19 -1z"/>
<path d="M848 3798 c-98 -57 -107 -64 -113 -97 -3 -20 -9 -46 -12 -59 -5 -20
6 -16 98 38 57 33 106 55 109 50 7 -11 34 103 29 119 -2 6 -52 -17 -111 -51z"/>
<path d="M4123 3763 c-24 -13 -43 -28 -43 -33 0 -5 17 -19 38 -31 20 -13 39
-25 42 -28 3 -4 35 -22 72 -41 38 -19 68 -38 68 -42 0 -5 7 -8 15 -8 8 0 52
-22 99 -49 l86 -49 36 19 c20 10 41 16 47 12 6 -3 7 -1 3 6 -4 6 -11 9 -16 6
-10 -6 -43 63 -36 74 3 4 0 13 -6 21 -8 12 -9 12 -4 -2 3 -11 0 -18 -9 -18 -7
0 -88 43 -180 95 -91 52 -167 95 -168 94 -1 -1 -21 -12 -44 -26z"/>
<path d="M3250 3717 c0 -40 5 -58 20 -73 33 -32 48 -43 53 -37 7 6 233 -123
261 -149 11 -10 25 -18 31 -18 5 0 34 -16 62 -35 l52 -35 12 42 c21 74 21 97
1 92 -10 -3 -111 49 -237 121 -121 70 -228 131 -237 136 -16 9 -18 4 -18 -44z"/>
<path d="M845 3603 c-67 -41 -71 -46 -82 -95 -6 -29 -10 -54 -8 -56 2 -2 30
12 61 32 42 26 60 32 65 24 6 -9 9 -9 13 2 6 15 25 134 22 136 0 0 -32 -19
-71 -43z"/>
<path d="M750 3355 l-105 -63 -12 -53 c-6 -29 -11 -55 -9 -56 1 -1 48 24 104
56 55 32 103 57 105 55 6 -7 25 45 32 89 3 20 2 37 -2 36 -4 0 -55 -29 -113
-64z"/>
<path d="M3140 3347 c0 -40 5 -57 20 -70 11 -9 24 -17 29 -17 5 0 12 -7 15
-15 3 -9 11 -15 18 -14 26 3 38 -2 67 -28 17 -16 56 -41 88 -58 32 -16 64 -35
71 -42 7 -7 19 -13 25 -13 7 0 6 -5 -3 -11 -12 -9 -12 -10 4 -5 12 4 43 -7 83
-29 l64 -35 18 42 c21 49 34 98 26 98 -3 0 -13 -5 -23 -11 -15 -10 -57 10
-255 125 -131 75 -240 136 -242 136 -3 0 -5 -24 -5 -53z"/>
<path d="M7415 3211 c-55 -32 -183 -105 -285 -163 -102 -58 -347 -198 -545
-312 -198 -115 -497 -287 -665 -384 -168 -96 -406 -234 -530 -305 -124 -72
-297 -171 -385 -222 -88 -51 -263 -152 -390 -225 -295 -171 -297 -172 -323
-163 -11 5 -177 139 -368 298 -489 408 -653 543 -701 576 l-42 29 -15 -22
c-34 -48 -12 -146 40 -187 25 -20 36 -22 86 -17 l57 7 83 -63 c46 -35 85 -65
88 -68 3 -3 25 -21 50 -40 25 -19 47 -37 50 -40 3 -3 21 -17 40 -30 19 -13 37
-27 40 -30 3 -3 41 -32 85 -64 44 -33 123 -94 175 -135 52 -42 104 -83 114
-91 11 -8 35 -29 54 -47 48 -46 145 -103 176 -103 29 0 79 23 159 74 29 18
122 72 207 121 85 48 203 117 263 152 59 34 110 63 113 63 3 0 28 15 57 33 29
19 120 72 202 119 83 47 200 115 261 150 61 36 117 68 125 71 8 4 28 15 44 25
101 62 277 162 285 162 6 0 10 4 10 9 0 5 10 13 23 17 12 4 54 26 92 49 39 23
90 53 115 67 25 14 113 65 195 113 179 105 462 268 525 303 25 13 50 28 55 32
8 7 87 52 310 180 105 60 153 91 165 105 18 21 16 21 -95 -44z"/>
<path d="M6435 2713 c-110 -64 -290 -168 -400 -231 -110 -63 -227 -131 -260
-150 -33 -19 -89 -52 -125 -72 -185 -104 -506 -293 -515 -302 -25 -27 -26 -28
940 529 303 176 444 256 508 292 31 18 57 37 57 42 0 12 23 24 -205 -108z"/>
<path d="M897 1933 c-12 -11 -8 -643 3 -643 6 0 23 -12 37 -27 23 -22 195
-127 358 -217 72 -40 290 -166 305 -176 72 -49 202 -114 229 -116 30 -3 104
36 500 263 256 146 472 271 479 277 9 9 12 81 10 318 l-3 306 -60 -35 c-33
-20 -94 -55 -135 -78 -119 -66 -566 -322 -665 -381 l-90 -53 -30 18 c-16 9
-233 134 -482 276 -248 142 -450 263 -447 267 6 10 0 11 -9 1z"/>
<path d="M5420 1731 c0 -5 -17 -16 -37 -25 -21 -9 -62 -31 -90 -50 l-53 -33
25 -13 c36 -19 65 -71 65 -114 0 -20 3 -36 6 -36 3 0 48 24 100 53 88 49 94
54 94 85 0 45 -24 89 -60 107 -17 9 -30 20 -30 25 0 6 -4 10 -10 10 -5 0 -10
-4 -10 -9z"/>
<path d="M8748 1656 c-10 -7 -96 -57 -192 -112 -160 -90 -176 -101 -176 -126
l0 -28 58 33 c31 17 121 68 199 112 129 72 142 83 143 108 0 30 -7 33 -32 13z"/>
<path d="M8719 1472 c-24 -15 -110 -65 -191 -111 -126 -71 -148 -87 -148 -107
0 -36 -26 -49 283 130 98 57 117 72 117 92 0 31 -6 30 -61 -4z"/>
<path d="M3020 1467 c0 -47 59 -104 200 -193 65 -41 266 -138 327 -158 58 -19
189 -25 216 -10 13 8 0 10 -50 10 -57 0 -78 5 -129 31 -33 17 -66 39 -74 48
-24 29 -192 141 -265 177 -38 19 -97 45 -130 58 -33 13 -68 30 -77 38 -16 13
-18 13 -18 -1z"/>
</g>
</svg>
