<svg xmlns="http://www.w3.org/2000/svg" viewBox="0 0 493 355" width="493" height="355">
	<defs>
		<linearGradient id="grd1" gradientUnits="userSpaceOnUse"  x1="6294.951" y1="23697.358" x2="6294.951" y2="110.782">
			<stop offset="0" stop-color="#808080" stop-opacity="0.25" />
			<stop offset="54" stop-color="#808080" stop-opacity="0.12" />
			<stop offset="100" stop-color="#808080" stop-opacity="0.1" />
		</linearGradient>
	</defs>
	<style>
		tspan { white-space:pre }
		.shp0 { fill: #eceff1 } 
		.shp1 { opacity: 0.031;fill: #cfd8dc } 
		.shp2 { fill: #ffffff } 
		.shp3 { fill: #cbceda } 
		.shp4 { fill: #6c63ff } 
		.shp5 { opacity: 0.2;fill: #6c63ff } 
		.shp6 { fill: none;stroke: #6c63ff;stroke-width: 0.96 } 
		.shp7 { fill: none;stroke: #6c63ff;stroke-width: 0.6 } 
		.shp8 { fill: url(#grd1) } 
		.shp9 { fill: #a0616a } 
		.shp10 { fill: #3c354c } 
		.shp11 { opacity: 0.102;fill: #000000 } 
		.shp12 { fill: #575a89 } 
		.shp13 { fill: #3f3d56 } 
		.shp14 { fill: none;stroke: #3f3d56;stroke-width: 1.92 } 
		.shp15 { fill: #57b894 } 
		.shp16 { fill: #656380 } 
		.shp17 { opacity: 0.2;fill: #000000 } 
	</style>
	<g id="Client-Side">
		<g id="4-1-1-Overview">
			<g id="undraw_growth_analytics_8btt">
				<path id="Path" class="shp0" d="M198.83 26.38L191.38 31.11L195.9 22.88C194.62 21.85 193.04 21.29 191.4 21.27L191.28 21.27C190.77 21.28 190.25 21.24 189.74 21.16L187.22 22.76L188.29 20.79C186.51 20.16 184.96 18.98 183.88 17.42L179.37 20.31L182.24 15.1C179.6 11.93 176.04 9.98 172.12 9.98C167.43 9.98 163.25 12.78 160.55 17.14C158.92 19.8 155.99 21.38 152.87 21.27L152.62 21.27C147.44 21.27 143.24 27.16 143.24 34.42C143.24 41.68 147.44 47.57 152.62 47.57C153.76 47.56 154.88 47.28 155.89 46.75C159.27 44.99 163.71 44.95 167.25 46.52C170.32 47.9 173.84 47.9 176.91 46.52C180.52 44.96 184.62 45.04 188.16 46.74C189.16 47.26 190.27 47.54 191.4 47.54C196.59 47.54 200.79 41.66 200.79 34.4C200.81 31.6 200.14 28.84 198.83 26.38Z" />
				<path id="Path" class="shp1" d="M184.8 45.62C182.09 45.1 179.29 45.41 176.76 46.5C173.68 47.87 170.17 47.87 167.1 46.5C163.47 44.9 159.31 44.98 155.74 46.72C154.74 47.25 153.61 47.53 152.48 47.54C147.87 47.54 144.04 42.89 143.24 36.76C144.16 36.09 144.94 35.25 145.54 34.28C148.24 29.92 152.42 27.12 157.12 27.12C161.81 27.12 165.95 29.88 168.63 34.2C170.27 36.85 173.17 38.44 176.28 38.41L176.4 38.41C180.08 38.38 183.25 41.33 184.8 45.62Z" />
				<path id="Path" class="shp0" d="M135.3 231.19L132.29 229.31C132 229.14 131.71 228.94 131.43 228.76C144.65 226.48 154.53 215.33 155.23 201.91C155.92 188.49 147.24 176.38 134.33 172.74L134.48 184.59L127.98 171.7L127.9 171.7C112.06 170.96 98.63 183.22 97.89 199.08C97.86 199.63 97.89 200.17 97.89 200.71C95.63 198.13 93.57 195.36 92.21 192.32C89.46 186.18 89.41 179.21 89.63 170.75C90.06 153.99 90.78 137.09 91.72 120.24C105.74 118.68 116.55 107.15 117.22 93.03C117.26 92.16 117.24 91.29 117.22 90.43C117.22 90.21 117.22 90 117.18 89.78C117.13 88.95 117.05 88.12 116.92 87.3C116.92 87.17 116.87 87.04 116.85 86.91C116.73 86.22 116.59 85.54 116.43 84.86C116.36 84.61 116.3 84.36 116.23 84.11C116.03 83.37 115.81 82.67 115.55 81.94C115.47 81.7 115.37 81.46 115.27 81.24C115.07 80.71 114.85 80.19 114.62 79.69C114.49 79.42 114.37 79.15 114.24 78.88C114.21 78.82 114.18 78.74 114.14 78.68L114.14 78.68C107.89 66.31 93.71 60.18 80.44 64.09L80.63 79.51L74.2 66.77C63.36 72.98 57.8 85.53 60.48 97.76L60.45 97.76C60.5 97.96 60.56 98.16 60.61 98.36C60.7 98.74 60.8 99.12 60.9 99.49C61.04 99.97 61.19 100.45 61.35 100.93C61.47 101.29 61.58 101.64 61.72 101.99C61.91 102.5 62.13 102.99 62.35 103.49C62.48 103.78 62.6 104.07 62.74 104.36C63.1 105.1 63.5 105.83 63.93 106.53C64.08 106.78 64.24 107.01 64.41 107.26C64.71 107.74 65.02 108.22 65.37 108.67C65.57 108.95 65.79 109.22 66.01 109.5C66.32 109.9 66.65 110.29 66.97 110.67C67.2 110.94 67.45 111.21 67.69 111.47C68.05 111.84 68.41 112.2 68.78 112.55C69.03 112.79 69.26 113.03 69.53 113.25C69.96 113.63 70.4 113.99 70.84 114.34C71.07 114.52 71.29 114.7 71.52 114.87C72.2 115.35 72.9 115.83 73.62 116.31C73.76 116.4 73.91 116.46 74.04 116.54C74.65 116.9 75.26 117.24 75.9 117.55C76.17 117.68 76.45 117.8 76.73 117.93C77.24 118.16 77.77 118.38 78.3 118.59L79.26 118.93C79.79 119.11 80.33 119.27 80.87 119.41C81.19 119.49 81.51 119.59 81.83 119.66C82.41 119.8 83.01 119.92 83.62 120.02L83.73 120.05C83.34 127.15 82.99 134.26 82.68 141.37C79.22 134.26 72.99 128.88 65.45 126.52C57.91 124.15 49.73 125.01 42.84 128.88L47.91 142.81L37.47 132.77C31.88 137.9 28.54 145.04 28.2 152.63C28.07 155.29 28.31 157.96 28.93 160.55C31.62 172.02 41.03 180.68 52.66 182.41C64.3 184.13 75.81 178.57 81.7 168.37C81.7 169.09 81.65 169.81 81.63 170.54C81.44 178 81.2 187.29 84.92 195.59C87.44 201.21 91.48 205.78 95.47 209.87C98.07 212.53 100.77 215.11 103.54 217.61C106.26 221.27 109.82 224.23 113.91 226.25C118.45 229.76 123.16 233.06 128.03 236.11L131.07 238C133.81 239.69 136.61 241.44 139.35 243.25C138.87 243.2 138.39 243.15 137.91 243.12C125.42 242.54 113.99 250.12 109.64 261.86L127.59 276.46L107.86 271.88C107.87 281.76 112.95 290.95 121.3 296.2C129.66 301.46 140.12 302.06 149.02 297.78L147.71 299.43C146.83 300.53 145.95 301.63 145.09 302.71C133.42 317.52 130.18 331.58 135.95 342.29L142.98 338.49C137.34 328.06 145.79 314.71 151.34 307.68C152.18 306.62 153.04 305.54 153.91 304.46C161.37 295.18 169.82 284.66 169.61 271.76C169.29 252.3 150.45 240.6 135.3 231.19Z" />
				<path id="Path" class="shp0" d="M265.24 209.93L269 207.59C269.36 207.36 269.71 207.11 270.07 206.89C253.5 204.04 241.14 190.03 240.36 173.22C240.08 167.6 241.14 162.01 243.45 156.88C247.8 147.17 256.23 139.89 266.47 137L266.28 151.79L274.37 135.71L274.47 135.71C294.23 134.79 310.99 150.08 311.92 169.88C311.95 170.56 311.92 171.24 311.92 171.91C314.74 168.69 317.3 165.23 319 161.45C322.43 153.76 322.5 145.11 322.22 134.54C321.69 113.62 320.79 92.54 319.61 71.53C302.12 69.58 288.64 55.19 287.81 37.58C287.76 36.49 287.77 35.41 287.81 34.33C287.81 34.06 287.82 33.79 287.85 33.53C287.92 32.48 288.02 31.45 288.17 30.44C288.19 30.27 288.23 30.11 288.26 29.96C288.41 29.09 288.59 28.24 288.79 27.4C288.87 27.09 288.95 26.77 289.03 26.44C289.28 25.53 289.56 24.62 289.88 23.74C289.98 23.44 290.11 23.15 290.22 22.86C290.48 22.2 290.75 21.56 291.05 20.94C291.2 20.61 291.35 20.27 291.53 19.94C291.57 19.86 291.6 19.77 291.65 19.69C299.44 4.25 317.13 -3.4 333.7 1.49L333.46 20.71L341.47 4.82C355 12.57 361.93 28.23 358.58 43.47L358.61 43.47C358.56 43.73 358.48 43.95 358.42 44.23C358.31 44.71 358.19 45.19 358.06 45.64C357.89 46.24 357.7 46.82 357.5 47.41C357.35 47.85 357.21 48.29 357.02 48.73C356.78 49.36 356.5 49.98 356.23 50.6C356.06 50.96 355.92 51.33 355.75 51.68C355.27 52.61 354.79 53.52 354.26 54.4C354.08 54.71 353.87 55 353.67 55.31C353.29 55.9 352.9 56.49 352.49 57.06C352.23 57.41 351.95 57.75 351.68 58.1C351.29 58.58 350.89 59.09 350.47 59.56C350.18 59.88 349.87 60.21 349.56 60.56C349.13 61.04 348.67 61.47 348.21 61.91C347.9 62.2 347.59 62.5 347.25 62.79C346.72 63.27 346.17 63.7 345.61 64.14C345.33 64.36 345.06 64.59 344.77 64.8C343.93 65.43 343.05 66.02 342.15 66.58C341.98 66.68 341.8 66.76 341.62 66.86C340.87 67.31 340.1 67.73 339.31 68.12C338.97 68.29 338.62 68.43 338.28 68.6C337.63 68.89 336.98 69.17 336.31 69.42C335.92 69.57 335.52 69.71 335.13 69.85C334.47 70.07 333.8 70.27 333.13 70.46C332.73 70.57 332.33 70.68 331.92 70.78C331.19 70.96 330.44 71.1 329.69 71.23L329.54 71.26C330.04 80.13 330.48 89 330.86 97.87C335.18 88.99 342.95 82.29 352.36 79.34C361.77 76.4 371.97 77.47 380.56 82.3L374.28 99.68L387.3 87.16C394.28 93.55 398.44 102.46 398.87 111.93C399.03 115.24 398.73 118.55 397.96 121.78C394.61 136.1 382.87 146.91 368.35 149.07C353.82 151.22 339.46 144.28 332.11 131.55C332.11 132.45 332.17 133.35 332.19 134.25C332.43 143.57 332.73 155.16 328.1 165.5C324.96 172.52 319.9 178.22 314.91 183.32C311.65 186.65 308.3 189.86 304.84 192.97C301.43 197.54 296.99 201.23 291.89 203.75C286.21 208.12 280.34 212.24 274.27 216.05L270.48 218.41C267.07 220.53 263.58 222.7 260.15 224.96C260.75 224.9 261.35 224.84 261.96 224.81C277.54 224.08 291.79 233.52 297.22 248.16L274.85 266.42L299.46 260.71C299.45 273.04 293.11 284.5 282.69 291.06C272.26 297.61 259.21 298.35 248.11 293.02C248.67 293.71 249.22 294.4 249.78 295.09C250.87 296.46 251.97 297.82 253.04 299.18C267.6 317.65 271.65 335.2 264.44 348.56L255.67 343.82C262.69 330.8 252.13 314.14 245.21 305.39C244.16 304.06 243.09 302.72 242.01 301.37C232.71 289.79 222.16 276.67 222.42 260.57C222.82 236.26 246.34 221.66 265.24 209.93Z" />
				<path id="Path" class="shp2" d="M421.38 90.41L421.38 258.82C421.38 259.74 421.02 260.62 420.37 261.27C419.72 261.92 418.84 262.29 417.92 262.29L75.23 262.29C74.31 262.29 73.43 261.92 72.78 261.27C72.13 260.62 71.77 259.74 71.77 258.82L71.77 90.41C71.77 89.49 72.13 88.61 72.78 87.96C73.43 87.31 74.31 86.95 75.23 86.95L417.92 86.95C419.83 86.95 421.38 88.5 421.38 90.41Z" />
				<path id="Path" class="shp3" d="M421.38 89.26L421.38 97.04L71.77 97.04L71.77 89.26C71.77 87.98 72.81 86.95 74.08 86.95L419.07 86.95C420.35 86.95 421.38 87.98 421.38 89.26Z" />
				<path id="Oval" class="shp4" d="M79.45 94.15C78.12 94.15 77.05 93.08 77.05 91.75C77.05 90.42 78.12 89.35 79.45 89.35C80.77 89.35 81.84 90.42 81.84 91.75C81.84 93.08 80.77 94.15 79.45 94.15Z" />
				<path id="Oval" class="shp4" d="M86.16 94.15C84.83 94.15 83.76 93.08 83.76 91.75C83.76 90.42 84.83 89.35 86.16 89.35C87.49 89.35 88.56 90.42 88.56 91.75C88.56 93.08 87.49 94.15 86.16 94.15Z" />
				<path id="Oval" class="shp4" d="M92.87 94.15C91.55 94.15 90.48 93.08 90.48 91.75C90.48 90.42 91.55 89.35 92.87 89.35C94.2 89.35 95.27 90.42 95.27 91.75C95.27 93.08 94.2 94.15 92.87 94.15Z" />
				<path id="Path" class="shp5" d="M365.18 209.91L365.18 238.82L127.7 238.95L127.48 181.16C129.99 188.56 136.18 189.89 147.08 176.84C173.72 144.97 209.94 136.58 237.97 135.7C257.15 135.1 276.29 139.06 294.56 146.95C302.14 150.23 332.13 153.76 351.91 155.34C359.36 155.92 365.11 162.14 365.13 169.62L365.18 209.91Z" />
				<path id="Path" class="shp5" d="M365.18 181.64L365.18 239.09L127.48 239.09L127.48 226.6C134.28 224.89 159.7 218.29 171.88 200.08C186.46 178.27 206.28 172.53 221.61 171.93C232.12 171.51 242.58 174.22 252.56 179.62C263.79 185.69 285.45 193.02 301.9 171.75C320.09 148.24 348.04 167.61 355.13 174.74C357.66 177.26 365.18 181.64 365.18 181.64Z" />
				<path id="Path" class="shp6" d="M127.48 120.71L127.48 238.19L365.18 238.19" />
				<path id="Path" fill-rule="evenodd" class="shp7" d="M157.43 238.19L157.43 166.57" />
				<path id="Path" fill-rule="evenodd" class="shp7" d="M186.28 238.19L186.28 147.41" />
				<path id="Path" fill-rule="evenodd" class="shp7" d="M215.14 238.19L215.14 138.3" />
				<path id="Path" fill-rule="evenodd" class="shp7" d="M243.99 238.19L243.99 135.48" />
				<path id="Path" fill-rule="evenodd" class="shp7" d="M272.84 238.19L272.84 138.62" />
				<path id="Path" fill-rule="evenodd" class="shp7" d="M301.69 238.19L301.69 150.24" />
				<path id="Path" fill-rule="evenodd" class="shp7" d="M330.54 238.19L330.54 156.2" />
				<path id="Oval" class="shp4" d="M157.28 170.97C154.33 170.97 151.94 168.58 151.94 165.63C151.94 162.68 154.33 160.29 157.28 160.29C160.22 160.29 162.61 162.68 162.61 165.63C162.61 168.58 160.22 170.97 157.28 170.97Z" />
				<path id="Oval" class="shp4" d="M186.13 152.76C183.18 152.76 180.79 150.37 180.79 147.41C180.79 144.46 183.18 142.07 186.13 142.07C189.08 142.07 191.46 144.46 191.46 147.41C191.46 150.37 189.08 152.76 186.13 152.76Z" />
				<path id="Oval" class="shp4" d="M214.98 143.96C212.03 143.96 209.64 141.57 209.64 138.62C209.64 135.66 212.03 133.28 214.98 133.28C217.93 133.28 220.31 135.66 220.31 138.62C220.31 141.57 217.93 143.96 214.98 143.96Z" />
				<path id="Oval" class="shp4" d="M243.82 140.82C240.87 140.82 238.49 138.43 238.49 135.48C238.49 132.52 240.87 130.13 243.82 130.13C246.77 130.13 249.16 132.52 249.16 135.48C249.16 138.43 246.77 140.82 243.82 140.82Z" />
				<path id="Oval" class="shp4" d="M272.68 143.96C269.73 143.96 267.34 141.57 267.34 138.62C267.34 135.66 269.73 133.28 272.68 133.28C275.62 133.28 278.01 135.66 278.01 138.62C278.01 141.57 275.62 143.96 272.68 143.96Z" />
				<path id="Oval" class="shp4" d="M301.53 155.89C298.58 155.89 296.19 153.5 296.19 150.55C296.19 147.6 298.58 145.21 301.53 145.21C304.48 145.21 306.86 147.6 306.86 150.55C306.86 153.5 304.48 155.89 301.53 155.89Z" />
				<path id="Oval" class="shp4" d="M330.38 162.18C327.43 162.18 325.04 159.79 325.04 156.83C325.04 153.88 327.43 151.49 330.38 151.49C333.33 151.49 335.71 153.88 335.71 156.83C335.71 159.79 333.33 162.18 330.38 162.18Z" />
				<path id="Oval" class="shp0" d="M246.5 355C110.19 355 0 350.49 0 344.91C0 339.33 110.19 334.82 246.5 334.82C382.81 334.82 493 339.33 493 344.91C493 350.49 382.81 355 246.5 355Z" />
				<path id="Shape" fill-rule="evenodd" class="shp8" d="M485.38 197.97C484.73 199.47 483.91 200.92 483.57 202.53C483.44 203.15 483.38 203.79 483.21 204.4C482.94 205.25 482.55 206.06 482.06 206.8L474.49 219.4C474.34 218.98 474.13 218.58 473.87 218.22C473.12 220.8 471.87 223.24 470.64 225.64L468.92 229.01L468.92 229.05C469.05 233.21 468.91 237.37 468.47 241.51C467.61 248.8 467 256.38 465.86 263.65C465.38 266.69 465.97 269.87 465.17 272.84C464.82 274.1 464.24 275.3 464 276.59C463.63 278.55 464.11 280.56 464.45 282.52C465.28 287.4 465.28 292.42 465.28 297.41C465.27 300.09 465.24 302.8 464.76 305.44C464.14 308.64 462.82 311.65 462.08 314.82C461.13 318.83 461.22 323.39 461.54 327.52C460.68 327.19 459.72 327.51 458.89 327.93L458.09 328.34C458.17 329.13 458.26 329.94 458.34 330.74L457.99 330.74C458.16 330.92 458.28 331.13 458.37 331.37C459.38 333.56 458.42 336.75 459.06 339.12C459.52 340.81 460.56 342.38 460.56 344.13C460.57 345.47 460 346.74 459 347.61C457.17 349.15 454.53 348.85 452.21 348.47C450.69 348.22 448.95 347.82 448.26 346.38C447.17 344.14 449.56 341.52 448.99 339.08C448.69 337.74 447.53 336.7 447.34 335.33C447.3 334.61 447.4 333.89 447.63 333.2C447.83 332.27 448.18 331.38 448.65 330.56C449.12 329.74 449.97 329.2 450.91 329.12L451.11 329.12C451.05 328.92 451.03 328.71 451.05 328.5C451.06 327.91 450.98 327.21 450.98 326.58L450.51 326.26C449.71 319.08 448.92 311.88 448.95 304.65C448.95 300.44 449.27 296.18 448.95 292.04C448.63 287.9 447.71 283.79 447.9 279.64C447.98 277.76 448.29 275.9 448.51 274.02C449.11 268.05 449.17 262.04 448.68 256.07C448.27 256.17 448.12 256.84 448.27 257.24C447.69 257.8 447.23 258.47 446.91 259.21C446.18 260.88 446.02 262.91 445.93 264.79L445.34 276.5C445.32 276.78 445.29 277.06 445.29 277.34C445.25 278.17 445.13 279 444.94 279.81C444.88 280 444.83 280.2 444.76 280.38C444.64 280.76 444.51 281.13 444.39 281.51C444.33 281.7 444.28 281.89 444.23 282.08C444.15 282.43 444.09 282.78 444.05 283.14C444.02 283.49 444.01 283.85 444.02 284.2C444.05 286.33 444.72 288.5 444.98 290.65C445.08 291.54 445.12 292.43 445.1 293.32C445.08 294.82 444.93 296.31 444.79 297.8C444.29 302.76 443.8 307.73 443.31 312.69C443.14 314.38 442.98 316.09 442.86 317.79C442.81 318.48 442.79 319.16 442.75 319.84C442.7 320.52 442.7 321.2 442.7 321.88C442.69 322.56 442.7 323.24 442.73 323.92C442.75 324.26 442.78 324.6 442.78 324.94C442.83 325.61 442.89 326.29 442.98 326.96C443.07 327.62 443.17 328.29 443.31 328.96C443.37 329.29 443.45 329.63 443.53 329.96C443.27 330.04 443.02 330.1 442.76 330.14C442.33 330.21 441.9 330.25 441.47 330.25C441.5 330.44 441.54 330.64 441.54 330.83C441.73 331.85 442.01 332.85 442.4 333.82C443.96 334.09 443.76 335.53 443.87 337.45C444 339.71 444.01 341.97 443.9 344.23C443.92 344.56 443.84 344.89 443.69 345.19C443.5 345.46 443.22 345.66 442.89 345.74C441.6 346.15 440.22 345.56 438.87 345.6C437.09 345.66 435.53 346.8 433.87 347.48C429.79 349.18 425.17 348.09 420.93 346.85C420.56 345.38 421.74 343.99 422.92 343.08C425.37 341.18 428.35 339.77 429.87 337.01C430.57 335.74 430.98 334.17 432.17 333.41C432.6 333.14 433.08 332.97 433.58 332.9C433.93 331.98 434.26 330.73 434.51 329.77C433.56 329.89 432.69 330.36 432.07 331.09C430.02 321.38 427.96 311.58 428.51 301.69C428.7 298.2 429.22 294.74 429.57 291.27C430.12 285.9 430.28 280.49 430.05 275.09C429.58 263.39 427.29 251.81 426.92 240.1C426.85 237.6 426.85 235.08 426.37 232.62C425.85 229.95 424.76 227.38 424.85 224.66C424.89 223.57 425.19 222.5 425.73 221.54C425.43 220.89 425.37 220.17 425.53 219.49C425.77 218.83 426.09 218.21 426.49 217.63C427.84 215.27 428.83 212.62 430.08 210.22C430.27 209.69 430.33 209.13 430.24 208.58C430.12 205.62 431.63 202.88 432.25 200C432.71 197.88 432.67 195.68 432.64 193.51C432.62 191.84 432.56 190.15 432.56 188.48C432.58 186.97 432.47 185.47 432.24 183.99C432 183.08 431.84 182.15 431.76 181.21C431.8 180.57 431.78 179.93 431.71 179.29C431.5 178.32 430.67 177.39 431.07 176.49C430.61 176.09 430.24 175.6 429.97 175.05C427.9 177.36 425.37 179.33 422.9 181.2L417.99 184.92C416.46 186.08 414.9 187.26 413.1 187.88C412.09 188.22 411.01 188.4 410.17 189.05C409.33 189.71 408.66 190.84 407.62 190.82C407.24 190.78 406.88 190.66 406.55 190.47C401.39 187.97 396.28 185.39 391.2 182.75C390.19 182.28 389.26 181.67 388.43 180.93C387.59 180.16 387.1 179.07 387.1 177.92C387.12 177.63 387.17 177.34 387.26 177.06C385.03 175.23 382.62 173.62 380.07 172.26C377.14 170.7 374 169.46 371.51 167.22C370.67 166.47 369.92 165.62 369.28 164.69C368.89 164.15 368.56 163.42 368.89 162.86C369.3 162.15 370.33 162.35 371.07 162.66C371.78 162.95 372.48 163.28 373.16 163.65C374.44 164.37 375.61 165.31 376.9 165.99C378.2 166.66 379.72 167.07 381.11 166.61C381.34 166.55 381.55 166.43 381.72 166.27C382.15 165.82 382.06 165.1 382.02 164.47C381.95 163.9 382.05 163.33 382.33 162.82C382.61 162.31 383.24 162.11 383.77 162.37C384.04 162.57 384.24 162.85 384.36 163.17C385.19 164.7 385.79 166.34 386.17 168.04C386.24 168.62 386.36 169.2 386.52 169.76C387.12 171.54 388.8 171.62 389.88 172.78C389.92 172.82 389.95 172.87 389.98 172.92C390.07 172.82 390.19 172.74 390.32 172.7C390.56 172.67 390.79 172.73 390.99 172.87C394.97 174.98 399.26 176.37 403.53 177.75C405.07 178.25 406.84 178.72 408.2 177.83C408.88 177.31 409.45 176.65 409.87 175.91C410.71 174.17 412.52 172.56 413.87 171.26C415.2 170 416.58 168.81 418.03 167.69C418.78 167.1 419.86 165.95 420.91 165.47C420.9 165.42 420.9 165.38 420.91 165.33C421.28 163.27 422.95 161.79 424.3 160.24C425.51 158.83 426.52 157.25 427.28 155.55C427.81 154.36 428.31 153.05 429.41 152.44C430.51 151.83 431.84 152.15 433.09 152.15C433.85 152.13 434.6 152.05 435.34 151.92C435.54 151.9 435.74 151.84 435.92 151.73C436.24 151.41 436.4 150.95 436.34 150.49C436.3 149.76 436.37 149.02 436.57 148.32C436.77 147.61 437.37 147.09 438.09 146.99C438.32 146.98 438.54 147.02 438.74 147.12C438.7 146.34 438.54 145.57 438.26 144.84C437.89 144.15 437.44 143.52 436.9 142.95C431.33 141.9 427.1 136.83 427.1 130.71C427.1 130.46 427.1 130.2 427.1 129.95C426.29 129.54 426 128.96 425.86 127.78C425.76 126.89 426.35 122.59 426.8 121.86C427.06 121.55 427.41 121.34 427.81 121.26C431.45 119.93 432.74 114.81 436.33 113.32C438.25 112.53 440.45 112.98 442.35 113.8C444.26 114.62 445.97 115.84 447.89 116.68C449.29 117.29 450.84 117.77 451.72 119.02C453.5 121.53 451.58 125.49 453.32 128.02C453.79 128.73 454.57 129.38 454.5 130.24C454.42 131.09 453.56 131.59 452.9 132.08C452.14 132.65 451.47 133.41 450.7 134L450.51 134.14C450.2 135.22 449.76 136.26 449.19 137.23C449.92 138.45 450.74 139.61 451.65 140.71C452.2 141.46 452.81 142.16 453.48 142.8C454.67 142.72 455.87 143.45 457.01 143.96C459.72 145.19 462.76 145.18 465.7 145.5C468.64 145.82 471.75 146.5 473.81 148.7C474.52 149.46 475.07 150.37 475.77 151.14C476.38 151.82 477.09 152.39 477.64 153.12C479.03 154.97 479.12 157.5 479.79 159.74C480.27 161.35 481.07 162.85 481.48 164.49C481.94 166.39 481.98 168.48 482.97 170.16L482.67 170.43C483 170.97 483.28 171.54 483.5 172.12C483.93 173.48 484.28 174.86 484.54 176.26C485.17 178.94 486.21 181.52 486.77 184.23C487.71 188.84 487.23 193.64 485.38 197.97ZM475.46 190.56C475.58 190.01 475.59 189.45 475.49 188.9C475.34 188.38 475.1 187.9 474.8 187.46C473.7 185.51 472.75 183.49 471.95 181.4C471.92 181.37 471.92 181.34 471.92 181.31C471.03 183.01 470.53 184.92 469.74 186.68C468.89 188.57 467.68 190.31 467.2 192.33C466.48 195.34 467.44 198.48 467.62 201.58C467.86 205.68 466.74 210 467.77 213.85C467.89 213.58 468.02 213.31 468.18 213.06C468.85 212.05 469.36 210.95 469.7 209.79L470.7 206.91C471.85 203.51 473.01 200.12 474 196.67C474.61 194.66 475.09 192.62 475.44 190.55L475.46 190.56Z" />
				<path id="Path" class="shp9" d="M386.4 169.75C386.22 169.18 386.1 168.6 386.03 168.02C385.72 166.29 384.92 164.7 384.14 163.13C384.02 162.81 383.8 162.53 383.52 162.33C382.98 162.09 382.35 162.28 382.04 162.79C381.75 163.29 381.64 163.87 381.72 164.44C381.76 165.07 381.85 165.8 381.41 166.24C381.22 166.41 381 166.53 380.76 166.59C379.32 167.05 377.73 166.64 376.37 165.96C375.01 165.28 373.8 164.33 372.46 163.62C371.76 163.25 371.03 162.92 370.28 162.63C369.51 162.32 368.44 162.11 368.01 162.82C367.66 163.39 368.01 164.12 368.41 164.66C369.08 165.6 369.86 166.45 370.74 167.2C373.34 169.44 376.62 170.69 379.68 172.25C383.1 174 386.29 176.18 389.17 178.72C389.45 178.39 389.62 177.98 389.65 177.54C389.88 176.32 390.89 173.84 389.87 172.78C388.76 171.61 387.01 171.53 386.4 169.75Z" />
				<path id="Path" class="shp10" d="M434.49 334.7C437.05 336.71 440.3 337.62 443.52 337.24C444.19 337.16 444.96 336.92 445.18 336.28C445.26 335.89 445.22 335.49 445.06 335.13C444.55 333.92 444.16 332.66 443.89 331.38C443.72 330.21 443.77 328.82 442.82 328.12C441.45 327.11 437.86 327.16 436.97 328.73C436.76 329.07 435.41 335.48 434.49 334.7Z" />
				<path id="Path" class="shp10" d="M453.81 329.04C453.75 329.29 453.79 329.57 453.94 329.79C454.09 330.01 454.33 330.15 454.6 330.18C456.8 330.86 459.08 331.24 461.39 331.32L460.91 326.7C460.93 326.49 460.85 326.28 460.71 326.13C460.56 325.98 460.35 325.9 460.14 325.92C458.82 325.7 456.04 324.8 454.77 325.26C453.34 325.78 453.84 327.66 453.81 329.04Z" />
				<path id="Path" class="shp9" d="M440.42 144.71C440.79 145.68 440.98 146.71 440.96 147.75C441.08 151.47 440.44 155.49 437.85 158.16C440.76 157.3 444.03 157.82 446.77 156.52C448.04 155.92 449.11 154.97 450.3 154.22C452.42 152.89 454.89 152.25 457.09 151.07C459.3 149.89 461.34 147.89 461.47 145.4C460.51 144.39 458.97 144.24 457.71 143.63C456.36 142.97 455.36 141.76 454.4 140.59C453.28 139.31 452.29 137.9 451.46 136.41C450.62 134.9 450.29 133.17 450.5 131.46C448.05 131.9 446.27 134.04 443.95 134.96C443.05 135.32 442.08 135.48 441.2 135.89C439.95 136.47 437.41 138.43 437.36 139.96C437.37 141.64 439.77 143.23 440.42 144.71Z" />
				<path id="Path" class="shp11" d="M440.42 144.71C440.79 145.68 440.98 146.71 440.96 147.75C441.08 151.47 440.44 155.49 437.85 158.16C440.76 157.3 444.03 157.82 446.77 156.52C448.04 155.92 449.11 154.97 450.3 154.22C452.42 152.89 454.89 152.25 457.09 151.07C459.3 149.89 461.34 147.89 461.47 145.4C460.51 144.39 458.97 144.24 457.71 143.63C456.36 142.97 455.36 141.76 454.4 140.59C453.28 139.31 452.29 137.9 451.46 136.41C450.62 134.9 450.29 133.17 450.5 131.46C448.05 131.9 446.27 134.04 443.95 134.96C443.05 135.32 442.08 135.48 441.2 135.89C439.95 136.47 437.41 138.43 437.36 139.96C437.37 141.64 439.77 143.23 440.42 144.71Z" />
				<path id="Path" class="shp12" d="M471.97 241.73C471.06 249.05 470.44 256.66 469.24 263.94C468.76 266.99 469.36 270.19 468.52 273.17C468.16 274.44 467.56 275.64 467.29 276.93C466.92 278.9 467.41 280.91 467.77 282.88C468.66 287.8 468.66 292.84 468.64 297.85C468.64 300.54 468.64 303.26 468.1 305.91C467.46 309.12 466.08 312.16 465.3 315.32C464.31 319.35 464.41 323.92 464.74 328.07C463.84 327.74 462.83 328.07 461.97 328.47C461.12 328.88 460.25 329.43 459.3 329.5C458.01 329.62 456.8 328.93 455.68 328.27C454.83 327.77 454.09 327.31 453.24 326.79C452.41 319.59 451.58 312.35 451.61 305.09C451.61 300.88 451.94 296.65 451.61 292.44C451.28 288.23 450.32 284.16 450.51 280C450.61 278.11 450.93 276.24 451.14 274.36C451.85 268.28 451.76 262.45 451.33 256.34C450.91 256.45 450.74 257.12 450.9 257.52C450.29 258.07 449.8 258.75 449.46 259.5C448.69 261.18 448.53 263.21 448.43 265.1L447.81 276.85C447.79 277.97 447.66 279.08 447.4 280.17C447.18 280.94 446.86 281.67 446.66 282.45C445.95 285.27 447.09 288.17 447.45 291.05C447.74 293.45 447.49 295.85 447.24 298.22L445.7 313.17C445.14 318.61 444.6 324.16 445.7 329.51C445.78 329.84 445.85 330.17 445.93 330.51C445.67 330.59 445.4 330.65 445.13 330.69C444.17 330.83 443.21 330.83 442.25 330.69C441.36 330.6 440.46 330.45 439.58 330.34C437.46 330.1 435.34 330.01 433.94 331.62C431.8 321.9 429.65 312.04 430.22 302.11C430.42 298.61 430.96 295.14 431.33 291.66C431.9 286.27 432.08 280.84 431.84 275.43C431.37 263.68 428.97 252.05 428.57 240.3C428.49 237.79 428.5 235.26 428 232.8C427.45 230.14 426.32 227.52 426.41 224.81C426.5 222.11 428.47 219.11 431.2 219.25C438.75 219.67 445.64 215.5 453.16 214.79C456.58 214.47 460.05 213.98 463.43 214.59C466.81 215.2 470.18 217.12 471.51 220.29C472.22 222.01 472.28 223.92 472.34 225.79C472.49 231.11 472.63 236.45 471.97 241.73Z" />
				<path id="Path" class="shp3" d="M434.07 333.94C432.83 334.71 432.4 336.28 431.68 337.56C430.09 340.33 426.97 341.75 424.41 343.65C423.18 344.57 421.95 345.96 422.34 347.44C426.77 348.68 431.59 349.78 435.86 348.07C437.6 347.38 439.22 346.24 441.08 346.18C442.49 346.14 443.95 346.73 445.28 346.32C445.62 346.25 445.91 346.05 446.12 345.77C446.27 345.48 446.35 345.15 446.34 344.81C446.45 342.54 446.44 340.27 446.3 338C446.17 335.79 446.47 334.22 443.94 334.32C441.05 334.44 436.59 332.39 434.07 333.94Z" />
				<path id="Path" class="shp3" d="M455.31 330.01C454.79 329.8 454.23 329.67 453.67 329.64C452.7 329.71 451.83 330.25 451.32 331.08C450.82 331.9 450.46 332.79 450.25 333.73C450.01 334.41 449.9 335.14 449.95 335.87C450.14 337.24 451.35 338.27 451.68 339.62C452.26 342.07 449.76 344.71 450.9 346.95C451.62 348.39 453.44 348.8 455.03 349.05C457.45 349.43 460.21 349.74 462.12 348.18C463.16 347.33 463.76 346.05 463.75 344.7C463.72 342.93 462.66 341.36 462.18 339.66C461.52 337.26 462.52 334.08 461.46 331.88C460.55 330.01 457.24 330.63 455.31 330.01Z" />
				<path id="Oval" class="shp9" d="M441.23 143.02C434.34 143.02 428.77 137.44 428.77 130.53C428.77 123.63 434.34 118.05 441.23 118.05C448.12 118.05 453.69 123.63 453.69 130.53C453.69 137.44 448.12 143.02 441.23 143.02Z" />
				<path id="Path" class="shp10" d="M447.84 150.99C446.49 150.42 445 150.31 443.58 150.67L442.45 148.69C441.97 147.81 441.25 146.82 440.25 146.86C439.51 146.96 438.89 147.48 438.66 148.2C438.46 148.91 438.37 149.64 438.42 150.38C438.48 150.84 438.32 151.31 437.98 151.63C437.79 151.73 437.59 151.8 437.37 151.81C436.6 151.95 435.82 152.03 435.03 152.04C433.72 152.04 432.33 151.73 431.19 152.34C430.06 152.96 429.53 154.26 428.98 155.47C428.17 157.18 427.12 158.76 425.86 160.16C424.45 161.72 422.71 163.2 422.32 165.27C422.15 166.15 422.94 166.8 423.58 167.44C426.09 169.94 429.61 171.48 431.47 174.5C431.91 175.21 432.26 176.01 432.93 176.49C432.52 177.4 433.41 178.33 433.6 179.31C433.67 179.94 433.69 180.59 433.65 181.23C433.74 182.17 433.9 183.1 434.13 184.01C434.38 185.5 434.49 187.01 434.47 188.52L434.55 193.57C434.59 195.75 434.62 197.95 434.15 200.08C433.5 202.96 431.92 205.72 432.04 208.69C432.13 209.24 432.08 209.81 431.88 210.34C430.57 212.74 429.54 215.4 428.13 217.77C427.73 218.35 427.41 218.98 427.17 219.64C426.8 221.01 427.57 222.49 428.7 223.35C429.83 224.2 431.26 224.55 432.65 224.82C445.57 227.3 458.98 224.31 471.19 219.41C471.52 219.31 471.81 219.15 472.07 218.93C472.96 218.06 472.26 216.6 471.75 215.46C469.84 211.24 471.37 206.34 471.09 201.73C470.91 198.62 469.9 195.48 470.66 192.44C471.14 190.42 472.42 188.67 473.31 186.78C474.27 184.72 474.81 182.45 476.06 180.58C477 179.29 478.1 178.13 479.34 177.12L487.13 170.16C486.1 168.49 486.06 166.38 485.57 164.48C485.15 162.83 484.31 161.33 483.81 159.71C483.11 157.46 483.01 154.91 481.56 153.07C480.99 152.33 480.25 151.76 479.61 151.08C478.88 150.31 478.31 149.4 477.56 148.63C475.41 146.42 472.16 145.72 469.1 145.43C466.03 145.13 462.86 145.11 460.02 143.88C458.63 143.28 457.15 142.37 455.71 142.83C454.57 143.18 453.83 144.3 453.37 145.41C452.9 146.52 452.58 147.72 451.81 148.64C450.87 149.75 449.21 150.48 447.84 150.99Z" />
				<path id="Path" class="shp10" d="M410.75 175.91C410.3 176.66 409.71 177.32 409.01 177.84C407.57 178.72 405.74 178.25 404.14 177.75C399.68 176.37 395.2 174.97 391.04 172.85C390.83 172.72 390.58 172.66 390.34 172.69C390.15 172.75 389.98 172.87 389.86 173.03C389.2 173.76 388.6 174.53 388.06 175.34C387.49 176.1 387.12 176.99 387.01 177.93C387.02 179.09 387.53 180.19 388.4 180.95C389.27 181.7 390.24 182.31 391.28 182.77C396.58 185.43 401.92 188.01 407.3 190.52C407.64 190.71 408.02 190.83 408.41 190.87C409.51 190.89 410.2 189.75 411.07 189.1C411.95 188.45 413.09 188.27 414.13 187.92C416.01 187.3 417.65 186.12 419.25 184.95L424.37 181.22C428.86 177.96 433.58 174.4 435.54 169.21L429.3 167.16C427.43 166.54 425.47 165.6 423.52 165.24C422.09 164.96 420.35 166.86 419.28 167.67C417.76 168.8 416.3 170 414.91 171.28C413.53 172.55 411.63 174.17 410.75 175.91Z" />
				<path id="Path" class="shp9" d="M469.76 216.92C468 217.63 466.01 216.57 464.14 216.88C463.27 217.08 462.44 217.42 461.68 217.9L456.23 220.96C455.9 221.14 455.53 221.58 455.82 221.82C455.91 221.88 456.01 221.91 456.11 221.92C457.92 222.16 459.62 221.05 461.43 220.74C462.22 220.63 463.03 220.6 463.83 220.65C463.96 220.64 464.09 220.66 464.22 220.71C464.49 220.86 464.64 221.16 464.62 221.47C464.62 221.78 464.53 222.07 464.52 222.38C464.57 223.09 464.85 223.76 465.31 224.3C467.04 226.8 468.97 229.15 471.06 231.35C471.6 230.67 472.06 229.94 472.44 229.17L474.23 225.81C476.09 222.34 477.99 218.75 478.29 214.82C476.95 214.39 474.45 212.98 473.07 213.72C471.68 214.47 471.36 216.41 469.76 216.92Z" />
				<path id="Path" class="shp13" d="M439.65 128.54C443.16 128.91 446.37 130.58 449.51 132.21C448.97 133.06 449.65 134.27 450.61 134.56C451.56 134.85 452.61 134.44 453.42 133.85C454.23 133.26 454.89 132.49 455.71 131.93C456.41 131.45 457.3 130.94 457.38 130.08C457.45 129.23 456.65 128.57 456.14 127.86C454.34 125.32 456.34 121.34 454.49 118.83C453.56 117.57 451.94 117.09 450.51 116.48C448.52 115.63 446.71 114.41 444.72 113.57C442.73 112.73 440.44 112.29 438.43 113.09C434.68 114.58 433.34 119.72 429.53 121.06C429.12 121.14 428.75 121.35 428.47 121.67C427.99 122.4 427.39 126.71 427.51 127.6C427.7 129.09 428.1 129.64 429.56 130.08C432.68 131.01 436.31 128.18 439.65 128.54Z" />
				<path id="Path" class="shp10" d="M485.1 168.37C486.23 169.4 487.11 170.67 487.67 172.09C488.12 173.45 488.48 174.83 488.75 176.24C489.41 178.94 490.49 181.53 491.07 184.23C492.06 188.86 491.56 193.69 489.63 198.01C488.95 199.52 488.1 200.97 487.74 202.59C487.61 203.21 487.55 203.85 487.37 204.46C487.08 205.32 486.67 206.12 486.16 206.87L478.3 219.54C477.69 218.05 476.46 216.88 474.94 216.35C473.43 215.84 471.8 215.74 470.24 216.07C470.82 215.15 471.08 214.11 471.68 213.19C472 212.7 472.3 212.19 472.58 211.66C472.84 211.09 473.08 210.5 473.28 209.91L474.31 206.99C475.51 203.58 476.7 200.18 477.76 196.72C478.4 194.71 478.91 192.65 479.28 190.57C479.4 190.04 479.41 189.5 479.32 188.96C479.16 188.44 478.91 187.94 478.59 187.49C477.44 185.55 476.45 183.52 475.62 181.42C475 179.95 474.37 178.31 474.93 176.82C475.29 176.03 475.81 175.33 476.47 174.77C479.09 172.31 481.98 170.16 485.1 168.37L485.1 168.37Z" />
				<path id="Path" class="shp11" d="M445.13 330.68L445.71 329.5C444.61 324.16 445.15 318.61 445.71 313.16L447.25 298.21C447.49 295.81 447.73 293.41 447.45 291.04C447.09 288.16 445.96 285.27 446.66 282.44C446.86 281.67 447.19 280.94 447.4 280.16C447.66 279.07 447.8 277.96 447.81 276.84L448.43 265.09C448.53 263.2 448.7 261.17 449.46 259.49L449.46 259.16L447.49 242.13L442.27 330.68L445.13 330.68Z" />
				<path id="Path" fill-rule="evenodd" class="shp14" d="M400.25 338.03C401.69 335.38 400.06 332.13 398.19 329.78C396.33 327.42 394.06 324.97 394.11 321.95C394.18 317.63 398.76 315.08 402.42 312.78C405.14 311.08 407.65 309.06 409.89 306.77C410.82 305.89 411.6 304.85 412.18 303.7C412.94 302 412.92 300.08 412.87 298.23C412.71 292.07 412.4 285.9 411.95 279.74" />
				<path id="Path" class="shp15" d="M418.91 279.41C418.81 277.11 417.54 275.03 415.55 273.88L414.05 276.87L414.1 273.25C413.38 273.04 412.63 272.95 411.88 272.98C408.18 273.17 405.33 276.32 405.5 280.02C405.68 283.73 408.82 286.59 412.51 286.42C416.21 286.25 419.08 283.11 418.92 279.41L418.91 279.41Z" />
				<path id="Path" class="shp15" d="M406.91 325.04C405.45 327.86 402.22 329.28 399.16 328.44C396.1 327.6 394.05 324.72 394.24 321.55C394.43 318.38 396.81 315.77 399.95 315.3C403.09 314.83 406.13 316.63 407.23 319.61L403.03 323.05L407.66 321.98C407.65 323.05 407.39 324.09 406.91 325.04L406.91 325.04Z" />
				<path id="Path" class="shp15" d="M403.58 311.95C400.12 312.19 397.04 309.75 396.48 306.31C395.93 302.88 398.08 299.58 401.45 298.72L401.41 301.5L402.94 298.48L402.94 298.48C404.72 298.39 406.46 299.02 407.79 300.22C409.11 301.43 409.89 303.11 409.97 304.9C410.01 305.67 409.91 306.45 409.68 307.2C408.86 309.91 406.41 311.81 403.58 311.95L403.58 311.95Z" />
				<path id="Path" class="shp15" d="M419.92 301.06C417.09 301.16 414.5 299.47 413.44 296.84C412.39 294.2 413.1 291.19 415.22 289.31C417.34 287.42 420.42 287.08 422.9 288.44L421.71 291.71L424.16 289.35C425.47 290.55 426.25 292.23 426.33 294.01C426.36 294.63 426.31 295.26 426.16 295.87C425.48 298.8 422.93 300.92 419.92 301.06Z" />
				<path id="Path" class="shp11" d="M418 281.2C416.45 281.37 414.94 281.86 413.38 281.95C411.82 282.05 410.11 281.68 409.12 280.46C408.6 279.81 408.33 278.98 407.88 278.27C407.45 277.6 406.87 277.05 406.18 276.67C405.08 278.99 405.38 281.74 406.98 283.75C408.58 285.77 411.18 286.69 413.69 286.14C416.19 285.58 418.17 283.65 418.77 281.15C418.51 281.16 418.26 281.18 418 281.2Z" />
				<path id="Path" class="shp11" d="M419.92 301.06C417.56 301.18 415.31 300.05 414 298.08C412.69 296.11 412.5 293.59 413.52 291.45C414.05 291.81 414.51 292.27 414.87 292.81C415.35 293.53 415.65 294.37 416.21 295.03C417.26 296.27 419.05 296.67 420.67 296.6C422.3 296.53 423.86 296.06 425.47 295.91C425.69 295.91 425.92 295.88 426.15 295.87C425.46 298.8 422.92 300.92 419.92 301.06Z" />
				<path id="Path" class="shp11" d="M403.58 311.95C401.25 312.07 399.01 310.96 397.7 309.02C396.38 307.08 396.16 304.59 397.13 302.46C397.69 302.82 398.17 303.29 398.57 303.83C399.09 304.57 399.42 305.42 400.03 306.1C401.17 307.37 403.08 307.81 404.79 307.77C406.51 307.74 408.07 307.33 409.72 307.2C408.89 309.92 406.43 311.83 403.58 311.95L403.58 311.95Z" />
				<path id="Path" class="shp11" d="M406.91 325.04C405.39 328.43 401.41 329.95 398.03 328.44C394.64 326.92 393.12 322.93 394.63 319.54C395.19 319.9 395.69 320.35 396.11 320.86C396.75 321.64 397.18 322.53 397.92 323.26C399.29 324.62 401.51 325.18 403.49 325.23C404.63 325.23 405.77 325.17 406.91 325.04L406.91 325.04Z" />
				<path id="Path" class="shp16" d="M390.1 334.98C390.1 334.98 395.41 334.81 397.01 333.67C398.62 332.53 405.17 331.17 405.58 333C405.99 334.83 413.56 342.13 407.57 342.15C401.57 342.18 393.63 341.22 392.03 340.23C390.43 339.24 390.1 334.98 390.1 334.98Z" />
				<path id="Path" class="shp17" d="M407.67 341.52C401.68 341.57 393.74 340.56 392.14 339.6C390.92 338.85 390.44 336.19 390.28 334.96L390.1 334.96C390.1 334.96 390.43 339.26 392.02 340.25C393.6 341.24 401.56 342.2 407.55 342.17C409.29 342.17 409.88 341.54 409.85 340.63C409.62 341.17 408.96 341.51 407.67 341.52Z" />
				<path id="Path" fill-rule="evenodd" class="shp14" d="M28.01 343.31C26.57 340.67 28.2 337.42 30.06 335.06C31.93 332.7 34.19 330.26 34.15 327.23C34.07 322.91 29.49 320.36 25.83 318.06C23.12 316.36 20.61 314.35 18.37 312.05C17.43 311.17 16.66 310.13 16.08 308.98C15.32 307.29 15.34 305.37 15.39 303.52C15.55 297.35 15.86 291.19 16.31 285.03" />
				<path id="Path" class="shp15" d="M9.35 284.69C9.45 282.4 10.72 280.31 12.7 279.17L14.21 282.16L14.16 278.54C14.88 278.33 15.63 278.24 16.38 278.27C20.08 278.45 22.93 281.6 22.76 285.31C22.58 289.01 19.44 291.87 15.74 291.7C12.04 291.53 9.18 288.4 9.34 284.69L9.35 284.69Z" />
				<path id="Path" class="shp15" d="M21.35 330.32C22.81 333.15 26.04 334.57 29.1 333.72C32.16 332.88 34.21 330.01 34.02 326.84C33.83 323.66 31.45 321.06 28.31 320.59C25.17 320.12 22.13 321.92 21.02 324.89L25.23 328.32L20.62 327.25C20.62 328.32 20.87 329.37 21.35 330.32L21.35 330.32Z" />
				<path id="Path" class="shp15" d="M24.67 317.23C28.14 317.48 31.22 315.03 31.78 311.6C32.33 308.16 30.17 304.87 26.81 304.01L26.85 306.78L25.32 303.76L25.32 303.76C23.54 303.68 21.79 304.3 20.47 305.51C19.15 306.71 18.37 308.39 18.29 310.18C18.25 310.96 18.34 311.74 18.57 312.48C19.4 315.2 21.84 317.1 24.67 317.23L24.67 317.23Z" />
				<path id="Path" class="shp15" d="M8.33 306.34C11.17 306.45 13.76 304.76 14.81 302.12C15.87 299.49 15.16 296.47 13.04 294.59C10.92 292.71 7.84 292.36 5.36 293.72L6.55 296.99L4.1 294.64C2.79 295.84 2 297.51 1.92 299.29C1.89 299.91 1.94 300.54 2.09 301.15C2.77 304.09 5.32 306.21 8.33 306.34Z" />
				<path id="Path" class="shp11" d="M10.25 286.49C11.81 286.66 13.32 287.14 14.88 287.24C16.43 287.33 18.15 286.96 19.13 285.75C19.66 285.1 19.93 284.27 20.38 283.55C20.8 282.89 21.39 282.34 22.07 281.95C23.18 284.27 22.87 287.02 21.28 289.04C19.68 291.05 17.08 291.98 14.57 291.42C12.06 290.87 10.09 288.93 9.49 286.43C9.74 286.44 10 286.46 10.25 286.49Z" />
				<path id="Path" class="shp11" d="M8.33 306.34C10.7 306.46 12.95 305.33 14.26 303.36C15.57 301.39 15.75 298.87 14.74 296.73C14.2 297.09 13.74 297.55 13.38 298.09C12.91 298.81 12.61 299.66 12.05 300.32C11 301.55 9.21 301.96 7.59 301.88C5.96 301.81 4.39 301.35 2.79 301.2C2.57 301.2 2.34 301.16 2.11 301.16C2.8 304.09 5.34 306.2 8.33 306.34Z" />
				<path id="Path" class="shp11" d="M24.67 317.23C27.01 317.35 29.24 316.24 30.56 314.3C31.88 312.36 32.1 309.88 31.13 307.74C30.57 308.11 30.08 308.57 29.69 309.11C29.17 309.85 28.84 310.7 28.25 311.39C27.11 312.65 25.21 313.1 23.49 313.06C21.77 313.02 20.21 312.61 18.56 312.48C19.39 315.2 21.84 317.1 24.67 317.23L24.67 317.23Z" />
				<path id="Path" class="shp11" d="M21.35 330.32C22.87 333.72 26.84 335.24 30.23 333.72C33.62 332.2 35.14 328.22 33.62 324.82C33.07 325.19 32.57 325.63 32.15 326.14C31.5 326.92 31.08 327.81 30.34 328.55C28.97 329.9 26.75 330.47 24.77 330.51C23.62 330.52 22.48 330.45 21.35 330.32Z" />
				<path id="Path" class="shp16" d="M38.16 340.26C38.16 340.26 32.85 340.1 31.24 338.96C29.64 337.81 23.09 336.45 22.68 338.28C22.27 340.11 14.69 347.41 20.69 347.44C26.68 347.47 34.63 346.51 36.23 345.52C37.83 344.53 38.16 340.26 38.16 340.26Z" />
				<path id="Path" class="shp17" d="M20.58 346.8C26.58 346.85 34.52 345.84 36.12 344.88C37.33 344.14 37.82 341.48 37.98 340.25L38.16 340.25C38.16 340.25 37.82 344.54 36.24 345.53C34.66 346.52 26.7 347.49 20.7 347.45C18.97 347.45 18.38 346.82 18.41 345.91C18.64 346.45 19.29 346.79 20.58 346.8Z" />
			</g>
		</g>
	</g>
</svg>